<svg width="450" height="120" viewBox="0 0 450 120" fill="none" xmlns="http://www.w3.org/2000/svg">
<path d="M69.5 60.9999C55.9 80.9999 27.5 87.6665 15 88.4999C-0.200028 97.6999 -2.83718e-05 113 1.99997 119.5H449.5C445.5 112.333 416.969 126.1 413.769 102.5C409.769 72.9999 398.769 20.9999 390.269 60.9999C377.519 121 367.15 115 351 46.9999C341.5 6.99984 336.098 30.2392 316.5 82.4999C309 102.5 303.5 1.00005 296.5 0.999878C286.5 0.999633 297 47 281.5 46.9999C266 46.9997 275.5 19.5 261.5 19.5C247.5 19.5 253.5 76.9999 237 76.9999C211.5 76.9999 212 31.9999 205.5 6.99986C199 -18.0001 194.5 72.9999 181.5 82.4999C168.5 91.9999 132.5 76.9998 114 46.9999C95.5 16.9999 86.5 35.9999 69.5 60.9999Z" fill="url(#paint0_linear)" stroke="black" stroke-linecap="round" stroke-linejoin="round"/>
<defs>
<linearGradient id="paint0_linear" x1="225.271" y1="-30.9207" x2="225.271" y2="119.5" gradientUnits="userSpaceOnUse">
<stop stop-color="#F254BD"/>
<stop offset="1" stop-color="#F4C3A7"/>
</linearGradient>
</defs>
</svg>
